<?xml version="1.0" encoding="utf-8"?>
<!-- Generator: Adobe Illustrator 15.1.0, SVG Export Plug-In . SVG Version: 6.00 Build 0)  -->
<!DOCTYPE svg PUBLIC "-//W3C//DTD SVG 1.1//EN" "http://www.w3.org/Graphics/SVG/1.1/DTD/svg11.dtd">
<svg version="1.1" id="Слой_1" xmlns="http://www.w3.org/2000/svg" xmlns:xlink="http://www.w3.org/1999/xlink" x="0px" y="0px"
	 width="510px" height="680px" viewBox="0 0 510 680" enable-background="new 0 0 510 680" xml:space="preserve">
<g>
	<path d="M202.175,321.002h19.401c1.529,0,2.714,1.233,2.714,2.713v7.939c0,1.509-1.209,2.713-2.704,2.713h-15.582
		c-0.39,0-0.787,0.31-0.787,0.795v4.118c0,0.438,0.355,0.793,0.794,0.793h17.484c0.438,0,0.794,0.355,0.794,0.795v2.248
		c0,0.439-0.356,0.795-0.794,0.795h-21.322c-0.438,0-0.794-0.355-0.794-0.795v-9.875c0-1.444,1.15-2.696,2.713-2.696l15.565,0
		c0.434,0,0.794-0.341,0.794-0.794v-4.118c0-0.479-0.392-0.794-0.794-0.794l-17.483,0c-0.439,0-0.794-0.355-0.794-0.794v-2.249
		C201.38,321.358,201.736,321.002,202.175,321.002L202.175,321.002z M309.497,343.912h-19.401c-1.526,0-2.713-1.217-2.713-2.713
		v-17.484c0-1.289,1.021-2.713,2.695-2.713h19.419c0.439,0,0.795,0.356,0.795,0.794v2.249c0,0.439-0.355,0.794-0.795,0.794h-17.483
		c-0.456,0-0.794,0.365-0.794,0.794v13.646c0,0.49,0.391,0.794,0.794,0.794h17.483c0.439,0,0.795,0.355,0.795,0.795v2.248
		C310.292,343.557,309.937,343.912,309.497,343.912L309.497,343.912z M316.05,343.117v-21.321c0-0.438,0.355-0.794,0.795-0.794
		h2.248c0.438,0,0.795,0.356,0.795,0.794v7.948c0,0.438,0.354,0.794,0.793,0.794h13.646c0.439,0,0.795-0.356,0.795-0.794v-7.948
		c0-0.438,0.355-0.794,0.794-0.794h2.249c0.438,0,0.794,0.356,0.794,0.794v21.321c0,0.439-0.355,0.795-0.794,0.795h-2.249
		c-0.438,0-0.794-0.355-0.794-0.795v-7.948c0-0.438-0.355-0.793-0.795-0.793h-13.646c-0.438,0-0.793,0.355-0.793,0.793v7.948
		c0,0.439-0.356,0.795-0.795,0.795h-2.248C316.405,343.912,316.05,343.557,316.05,343.117L316.05,343.117z M259.51,340.074h21.32
		c0.439,0,0.795,0.355,0.795,0.795v2.248c0,0.439-0.355,0.795-0.795,0.795h-21.32c-0.439,0-0.795-0.355-0.795-0.795v-2.248
		C258.715,340.43,259.07,340.074,259.51,340.074L259.51,340.074z M259.51,330.539h21.32c0.439,0,0.795,0.356,0.795,0.794v2.249
		c0,0.438-0.355,0.795-0.795,0.795h-21.32c-0.439,0-0.795-0.356-0.795-0.795v-2.249C258.715,330.895,259.07,330.539,259.51,330.539
		L259.51,330.539z M259.51,321.002h21.32c0.439,0,0.795,0.356,0.795,0.794v2.249c0,0.439-0.355,0.794-0.795,0.794h-21.32
		c-0.439,0-0.795-0.355-0.795-0.794v-2.249C258.715,321.358,259.07,321.002,259.51,321.002L259.51,321.002z M230.842,321.002h21.321
		c0.439,0,0.794,0.356,0.794,0.794v2.249c0,0.439-0.355,0.794-0.794,0.794h-7.947c-0.438,0-0.794,0.355-0.794,0.794v17.483
		c0,0.439-0.356,0.795-0.794,0.795h-2.249c-0.438,0-0.794-0.355-0.794-0.795v-17.483c0-0.439-0.356-0.794-0.794-0.794h-7.948
		c-0.438,0-0.794-0.355-0.794-0.794v-2.249C230.048,321.358,230.403,321.002,230.842,321.002L230.842,321.002z M192.58,343.91
		c-0.439,0-0.794-0.355-0.794-0.795v-4.137c0-0.438-0.355-0.794-0.794-0.794h-7.67c-0.242,0-0.307-0.273-0.188-0.392l2.606-2.607
		c0.459-0.459,1.043-0.824,1.831-0.824h3.421c0.438,0,0.794-0.355,0.794-0.794v-5.223c0-0.716-0.86-1.058-1.364-0.554
		l-15.881,15.881c-0.153,0.152-0.35,0.238-0.567,0.238h-3.18c-0.716,0-1.058-0.859-0.553-1.365l21.315-21.315
		c0.193-0.193,0.365-0.23,0.627-0.23l2.647,0.002c0.509,0,0.793,0.398,0.793,0.876v21.237c0,0.439-0.355,0.795-0.793,0.795H192.58
		L192.58,343.91z" fill="#ffffff"/>
	<path fill-rule="evenodd" clip-rule="evenodd" d="M180.074,358.756c0,0.145-0.117,0.262-0.262,0.262c-2.13,0-4.261,0-6.391,0
		c-0.497,0-0.899-0.398-0.899-0.895l-0.001-5.76c0-0.494,0.398-0.898,0.895-0.898c2.132,0,4.265,0,6.396,0
		c0.145,0,0.262,0.117,0.262,0.262c0,0.248,0,0.494,0,0.742c0,0.145-0.117,0.262-0.262,0.262c-1.921,0-3.843,0-5.765,0
		c-0.145,0-0.261,0.117-0.261,0.262c0,1.5,0,2.998,0,4.498c0,0.145,0.117,0.262,0.261,0.262c1.922,0,3.844,0,5.765,0
		c0.145,0,0.262,0.117,0.262,0.262C180.074,358.262,180.074,358.508,180.074,358.756L180.074,358.756z M199.016,351.465
		c1.926,0,3.853,0,5.779,0c0.496,0,0.898,0.398,0.898,0.895v5.764c0,0.482-0.392,0.889-0.875,0.895c-1.927,0-3.853,0-5.779,0
		c-0.496,0-0.898-0.398-0.898-0.895l0.001-5.764C198.141,351.877,198.533,351.471,199.016,351.465L199.016,351.465z M204.166,352.73
		c0.145,0,0.262,0.117,0.262,0.262c0,1.5,0,2.998,0,4.498c0,0.145-0.117,0.262-0.262,0.262c-1.5,0-2.999,0-4.499,0
		c-0.144,0-0.261-0.117-0.261-0.262c0-1.5,0-2.998,0-4.498c0-0.145,0.117-0.262,0.261-0.262
		C201.167,352.73,202.666,352.73,204.166,352.73L204.166,352.73z M253.479,355.602v-2.609c0-0.145,0.117-0.262,0.262-0.262h4.499
		c0.146,0,0.265,0.119,0.262,0.264v2.605c0.003,0.146-0.119,0.264-0.267,0.264h-4.489C253.6,355.863,253.479,355.75,253.479,355.602
		L253.479,355.602z M252.215,351.727c0-0.145,0.117-0.262,0.262-0.262h6.415c0.483,0.006,0.875,0.412,0.875,0.895
		c0.002,1.291,0.002,2.584,0,3.875c0,0.484-0.392,0.889-0.875,0.895h-5.15c-0.145,0-0.262,0.117-0.262,0.262v1.361
		c0.002,0.146-0.119,0.268-0.265,0.266h-0.734c-0.146,0.002-0.265-0.115-0.265-0.262V351.727L252.215,351.727z M279.36,357.129
		h4.499c0.145,0,0.262,0.117,0.262,0.262v0.004v1.361c0,0.145,0.117,0.262,0.262,0.262h0.004h0.734h0.004
		c0.145,0,0.262-0.117,0.262-0.262v-0.004v-6.393c0-0.482-0.392-0.895-0.875-0.895h-5.778c-0.496,0-0.899,0.398-0.899,0.895v6.396
		c0,0.145,0.116,0.262,0.262,0.262h0.003h0.734h0.004c0.145,0,0.262-0.117,0.262-0.262v-0.004v-1.361
		C279.099,357.246,279.215,357.129,279.36,357.129L279.36,357.129z M283.856,355.863h-4.493h-0.003
		c-0.146,0-0.262-0.117-0.262-0.262v-2.609c0-0.145,0.116-0.262,0.262-0.262h4.499c0.143,0,0.259,0.113,0.262,0.256l0,0v0.002v0.004
		v0.002v2.605v0.002c0,0.145-0.117,0.262-0.262,0.262H283.856L283.856,355.863z M304.718,358.752v-4.648
		c0-0.145,0.148-0.262,0.261-0.262c0.114,0,0.155,0.037,0.204,0.098l0,0l4.564,4.996h0.002c0.047,0.051,0.115,0.082,0.189,0.082
		h0.004h0.798h0.003c0.146,0,0.263-0.117,0.263-0.262v-0.004v-7.021v-0.004c0-0.145-0.117-0.262-0.263-0.262h-0.741
		c-0.145,0-0.262,0.117-0.262,0.262v4.65v0.004c0.002,0.145-0.147,0.262-0.262,0.262s-0.158-0.039-0.206-0.102l-4.546-4.979l0,0
		c-0.048-0.061-0.121-0.098-0.204-0.098h-0.808c-0.145,0-0.262,0.117-0.262,0.262v7.029c0,0.145,0.117,0.262,0.262,0.262h0.003
		h0.735h0.003c0.146,0,0.262-0.117,0.262-0.262V358.752L304.718,358.752z M232.884,358.756v-4.559
		c0.003-0.244-0.294-0.357-0.456-0.182l-2.766,3.031c-0.048,0.051-0.116,0.082-0.191,0.082h-1.03
		c-0.083,0.002-0.162-0.037-0.212-0.104l-2.746-3.004c-0.153-0.168-0.458-0.078-0.458,0.174v4.557
		c0.002,0.146-0.116,0.266-0.262,0.266h-0.738c-0.146,0.002-0.265-0.115-0.265-0.262v-7.029c0-0.145,0.118-0.262,0.262-0.262h0.726
		c0.077,0,0.147,0.033,0.195,0.086l3.82,4.188c0.119,0.117,0.295,0.096,0.401-0.02l3.799-4.164c0.048-0.055,0.119-0.09,0.198-0.09
		h0.728c0.144,0,0.262,0.117,0.262,0.262v7.025c0.002,0.146-0.116,0.266-0.262,0.266h-0.738
		C233.004,359.02,232.884,358.902,232.884,358.756L232.884,358.756z M333.298,357.197v1.555v0.004c0,0.143-0.114,0.26-0.257,0.262
		l0,0h-0.002h-0.003h-0.004h-0.734h-0.003c-0.145,0-0.263-0.117-0.263-0.262v-1.555v-0.004c0-0.047-0.012-0.09-0.033-0.129l0,0
		l-2.896-5.217c-0.021-0.037-0.031-0.08-0.031-0.125c0-0.145,0.116-0.262,0.261-0.262h0.848c0.099,0,0.184,0.053,0.229,0.133l0,0
		l2.023,3.646l0.007,0.012l0,0c0.046,0.076,0.13,0.129,0.227,0.129c0.099,0,0.187-0.057,0.23-0.139l0,0l2.022-3.645
		c0.045-0.082,0.131-0.137,0.23-0.137h0.848c0.145,0,0.262,0.117,0.262,0.262c0,0.043-0.011,0.084-0.03,0.121l0,0l-0.001,0.004
		l-0.004,0.006l0,0l-2.891,5.209l-0.005,0.01h-0.001l0,0C333.308,357.113,333.298,357.154,333.298,357.197L333.298,357.197z" fill="#ffffff"/>
</g>
</svg>
